<?xml version="1.0" standalone="no"?>
<!DOCTYPE svg PUBLIC "-//W3C//DTD SVG 20010904//EN"
 "http://www.w3.org/TR/2001/REC-SVG-20010904/DTD/svg10.dtd">
<svg version="1.0" xmlns="http://www.w3.org/2000/svg"
 width="38pt" height="38pt" viewBox="0 0 1350.000000 1035.000000"
 preserveAspectRatio="xMidYMid meet">
<metadata>
Created by potrace 1.10, written by Peter Selinger 2001-2011
</metadata>
<g transform="translate(0.000000,1035.000000) scale(0.100000,-0.100000)"
fill="#ffffff" stroke="none">
<path d="M6540 9389 c-14 -6 -52 -8 -86 -5 -34 3 -65 2 -68 -2 -7 -6 -29 -8
-206 -14 -47 -2 -90 -7 -96 -11 -6 -3 -45 -9 -85 -13 -41 -3 -93 -13 -115 -21
-27 -10 -67 -14 -115 -11 -72 3 -74 2 -71 -19 3 -18 -2 -23 -19 -23 -12 0 -31
8 -42 18 -19 16 -20 16 -34 -5 -11 -16 -25 -23 -47 -23 -17 0 -48 -9 -69 -20
-22 -12 -47 -18 -57 -15 -11 3 -30 -1 -43 -10 -14 -9 -48 -18 -78 -22 -32 -4
-68 -17 -93 -33 -26 -17 -61 -29 -95 -33 -29 -4 -72 -18 -96 -31 -23 -14 -69
-35 -101 -47 -33 -12 -65 -31 -73 -41 -12 -18 -14 -18 -31 -3 -17 16 -19 15
-35 -9 -10 -15 -29 -29 -44 -32 -26 -7 -74 -30 -101 -50 -8 -6 -31 -17 -50
-24 -19 -8 -52 -27 -73 -43 -20 -16 -48 -30 -62 -32 -14 -1 -33 -9 -43 -17 -9
-8 -45 -30 -80 -48 -35 -19 -78 -51 -96 -72 -32 -37 -59 -48 -71 -28 -9 15
-35 12 -35 -3 0 -7 -13 -28 -30 -47 -16 -18 -31 -37 -32 -42 -2 -5 -18 -11
-36 -13 -43 -5 -48 -10 -55 -45 -5 -24 -12 -30 -32 -30 -15 0 -25 -6 -25 -14
0 -17 -120 -109 -152 -116 -13 -3 -24 -15 -26 -26 -2 -12 -21 -36 -44 -55 -22
-19 -56 -50 -75 -71 -19 -20 -44 -39 -56 -42 -13 -3 -30 -22 -41 -45 -10 -22
-34 -51 -52 -63 -18 -13 -35 -32 -36 -43 -2 -14 -10 -20 -25 -19 -16 0 -23 -5
-23 -18 0 -10 -7 -21 -15 -24 -8 -4 -15 -12 -15 -18 0 -7 -10 -21 -23 -33 -30
-27 -70 -74 -82 -97 -5 -11 -27 -28 -47 -39 -30 -15 -38 -25 -38 -47 0 -18 -9
-36 -22 -47 -13 -10 -43 -48 -68 -85 -35 -53 -49 -66 -64 -62 -16 5 -18 2 -14
-25 3 -22 -1 -36 -14 -48 -10 -9 -18 -21 -18 -28 0 -7 -9 -20 -20 -30 -11 -10
-20 -24 -20 -31 0 -8 -9 -19 -20 -26 -12 -8 -20 -24 -20 -39 0 -14 -11 -38
-25 -53 -14 -15 -23 -31 -20 -36 3 -5 -4 -14 -15 -20 -11 -6 -20 -20 -20 -31
0 -12 -11 -34 -25 -51 -14 -16 -25 -40 -25 -52 0 -12 -7 -31 -15 -42 -8 -10
-15 -28 -15 -40 0 -11 -11 -31 -24 -43 -13 -13 -27 -34 -30 -47 -4 -13 -10
-24 -15 -24 -5 0 -7 -8 -4 -19 3 -10 0 -22 -6 -25 -6 -4 -11 -15 -11 -25 0
-10 -6 -24 -14 -30 -8 -7 -16 -28 -19 -49 -5 -35 -16 -87 -33 -156 -6 -26 -5
-29 15 -23 11 3 21 1 21 -4 0 -16 -29 -22 -44 -10 -11 9 -30 9 -77 0 -35 -6
-103 -15 -150 -18 -55 -4 -96 -13 -112 -24 -15 -9 -61 -22 -104 -28 -49 -7
-86 -17 -98 -29 -11 -9 -37 -23 -57 -29 -20 -7 -42 -19 -48 -27 -7 -7 -25 -14
-40 -14 -15 0 -30 -6 -33 -14 -3 -8 -30 -25 -61 -39 -58 -27 -145 -89 -159
-113 -4 -7 -30 -23 -57 -35 -28 -12 -50 -25 -50 -30 0 -4 -13 -23 -30 -41 -16
-18 -30 -36 -30 -40 0 -4 -12 -13 -27 -20 -15 -7 -34 -26 -41 -41 -9 -18 -21
-27 -36 -27 -30 0 -37 -9 -26 -30 7 -14 3 -24 -17 -44 -14 -14 -30 -26 -34
-26 -5 0 -9 -7 -9 -16 0 -8 -13 -29 -30 -45 -17 -18 -27 -36 -23 -45 5 -14
-50 -74 -69 -74 -4 0 -8 -14 -8 -32 0 -17 -10 -45 -24 -62 -12 -17 -37 -76
-55 -131 -17 -55 -36 -109 -41 -120 -13 -25 -33 -123 -32 -154 0 -16 -3 -20
-8 -11 -15 25 -30 -23 -19 -63 7 -25 6 -49 -1 -77 -9 -32 -8 -46 5 -69 19 -38
19 -65 0 -81 -17 -14 -12 -81 12 -147 10 -27 13 -55 9 -78 -6 -28 -2 -41 13
-62 12 -14 21 -34 21 -45 0 -10 11 -41 25 -68 14 -27 25 -56 25 -64 0 -33 34
-98 55 -106 13 -5 26 -23 34 -50 7 -22 20 -49 29 -58 9 -10 30 -36 47 -57 16
-22 43 -52 59 -67 17 -16 26 -32 23 -41 -4 -10 4 -19 25 -28 29 -12 106 -69
158 -116 13 -12 36 -25 51 -28 15 -4 30 -13 33 -22 4 -9 13 -13 22 -9 9 3 31
-6 53 -24 25 -21 57 -34 97 -41 32 -6 71 -13 87 -16 15 -3 30 -9 33 -14 3 -5
23 -9 45 -9 22 0 49 -5 60 -11 11 -6 71 -12 132 -14 62 -3 136 -7 165 -11 30
-3 58 -1 65 4 18 15 88 16 122 3 22 -9 36 -9 54 -1 28 13 41 1 41 -39 0 -43
41 -166 61 -183 10 -9 19 -24 19 -33 0 -20 36 -91 51 -100 6 -5 8 -22 4 -46
-6 -35 -4 -40 19 -49 16 -6 26 -17 26 -29 0 -11 7 -32 15 -48 8 -15 27 -56 42
-90 15 -35 34 -64 44 -66 11 -3 20 -19 25 -41 4 -25 17 -45 36 -59 23 -17 28
-27 24 -47 -3 -18 1 -29 14 -38 11 -6 25 -30 31 -53 8 -26 21 -44 35 -49 12
-5 25 -19 29 -32 4 -13 17 -30 28 -40 18 -14 19 -19 8 -32 -11 -14 -11 -16 3
-16 8 0 23 -12 33 -27 9 -16 36 -49 60 -75 24 -26 43 -54 43 -61 0 -8 14 -20
30 -27 24 -10 29 -17 24 -33 -4 -14 2 -26 21 -43 16 -13 31 -24 34 -24 3 0 14
-14 23 -30 11 -19 25 -30 39 -30 17 0 20 -4 15 -24 -5 -21 -2 -25 23 -31 35
-8 66 -39 58 -59 -4 -10 2 -20 14 -27 24 -12 65 -50 208 -187 53 -51 106 -95
118 -98 12 -3 23 -15 25 -27 2 -13 20 -30 48 -44 25 -13 55 -35 68 -48 13 -14
27 -25 32 -25 6 0 10 -6 10 -14 0 -15 79 -66 102 -66 7 0 26 -16 41 -35 15
-19 33 -35 38 -35 12 0 151 -80 159 -91 8 -11 111 -79 121 -79 5 0 17 -4 27
-10 9 -5 29 -14 45 -20 20 -7 27 -16 27 -35 0 -25 14 -33 25 -15 12 19 42 10
53 -15 9 -19 19 -25 43 -25 18 0 40 -6 48 -14 9 -8 34 -21 56 -29 93 -34 210
-87 237 -107 22 -16 37 -20 59 -15 25 6 31 3 36 -14 3 -12 6 -21 7 -22 0 0 35
-6 76 -14 109 -19 149 -31 169 -49 10 -9 28 -16 40 -16 32 0 213 -49 228 -62
7 -6 33 -8 58 -6 31 4 51 1 67 -11 14 -10 44 -16 78 -16 32 -1 72 -8 94 -19
31 -14 43 -16 65 -6 20 8 35 8 57 -1 16 -6 85 -14 154 -16 70 -3 131 -10 139
-17 10 -7 59 -10 155 -7 172 5 202 5 244 -4 24 -6 38 -3 51 9 14 13 36 17 92
15 41 -1 92 3 114 9 22 6 90 13 150 17 61 3 129 13 153 22 32 12 46 13 54 5
20 -20 64 -13 92 13 15 14 36 25 46 25 10 0 22 5 25 10 4 6 21 8 42 4 31 -6
73 2 138 26 74 27 128 40 163 40 23 0 43 4 47 9 17 29 177 81 225 74 29 -4 33
-3 23 8 -20 20 -16 29 12 29 14 0 33 4 43 9 56 28 111 51 125 51 8 0 17 6 20
14 3 8 19 17 36 21 16 3 35 13 42 21 6 8 29 14 50 14 26 0 42 6 51 19 7 10 31
26 52 35 21 9 50 27 64 41 16 16 36 25 56 25 40 0 67 16 47 29 -16 10 1 24 21
16 8 -3 23 3 33 15 10 11 26 20 37 20 10 0 18 4 18 9 0 18 32 41 56 41 13 0
32 9 41 20 10 11 23 20 29 20 7 0 17 13 22 29 9 26 17 30 64 38 48 7 53 11 56
36 2 15 9 27 17 27 7 0 33 16 57 35 23 20 54 45 68 56 14 11 53 42 87 70 35
27 70 63 78 79 9 17 22 30 30 30 7 0 20 8 27 18 7 9 32 30 56 45 23 15 42 32
42 37 0 6 9 10 20 10 13 0 20 7 20 20 0 11 5 20 12 20 13 0 58 48 58 62 0 4 6
8 14 8 7 0 17 15 23 33 5 19 15 31 24 30 8 -2 19 10 26 27 7 20 18 30 32 30
14 0 19 5 14 15 -6 18 23 55 43 55 8 0 16 11 20 24 8 32 85 116 106 116 19 0
32 26 29 57 -2 22 13 37 38 38 8 0 20 17 27 39 8 21 25 49 39 62 14 13 25 29
25 37 0 8 12 19 26 25 19 9 24 17 19 32 -6 20 25 77 52 93 7 4 13 17 13 27 0
10 5 22 11 25 6 4 29 45 51 92 22 46 51 97 65 113 13 16 22 34 18 40 -8 12 13
51 37 68 11 8 18 26 18 47 0 20 10 49 25 71 13 20 27 52 30 73 3 20 10 43 15
51 36 58 52 115 41 139 -31 63 -29 101 6 101 8 0 16 7 20 17 5 14 8 13 14 -5
10 -27 29 -29 35 -4 3 9 26 28 52 41 26 13 57 29 69 35 19 10 35 45 38 86 1
25 16 42 31 36 8 -3 14 -1 14 4 0 6 -8 10 -19 10 -10 0 -21 8 -25 18 -3 9 -11
25 -18 36 -10 15 -10 20 -1 23 17 6 -2 43 -22 43 -8 0 -15 6 -15 14 0 7 -9 25
-20 38 -18 24 -26 26 -102 26 -50 0 -96 -5 -117 -14 -18 -8 -57 -14 -85 -14
-44 0 -56 4 -78 28 -53 58 -58 72 -58 167 0 75 4 98 25 140 13 28 25 57 25 66
0 9 6 22 14 29 8 6 16 24 18 38 2 19 10 28 26 30 12 2 22 10 22 18 0 8 8 17
18 21 9 3 37 15 62 26 67 31 125 32 165 2 37 -29 76 -35 55 -10 -17 21 -4 32
20 17 48 -30 131 9 167 78 12 25 26 50 30 55 22 28 33 70 27 103 -9 46 -96
132 -134 132 -20 0 -22 2 -10 10 12 7 12 12 2 22 -9 9 -15 9 -24 0 -15 -15
-48 -16 -48 -2 0 6 10 15 23 20 38 16 55 35 73 79 15 37 16 64 10 190 -3 80
-12 175 -18 211 -6 36 -12 81 -12 100 -1 19 -4 40 -8 45 -4 6 -6 38 -5 72 2
46 -2 66 -15 80 -11 12 -18 36 -18 62 0 23 -7 53 -16 67 -13 18 -15 38 -11 79
4 44 2 56 -13 70 -11 10 -20 35 -22 63 -5 54 -60 238 -88 297 -10 22 -17 51
-14 65 4 23 -5 42 -48 102 -10 13 -9 22 2 42 14 27 6 51 -9 27 -14 -23 -51 18
-51 56 0 18 -9 47 -20 65 -11 18 -20 41 -20 50 0 9 -12 30 -26 47 -14 17 -23
34 -20 39 7 11 -33 92 -45 92 -5 0 -9 13 -9 28 0 17 -10 38 -25 52 -14 13 -25
32 -25 42 0 10 -7 26 -15 36 -55 61 -85 108 -91 138 -4 20 -13 38 -21 41 -9 4
-26 29 -38 57 -12 28 -41 70 -64 94 -22 23 -41 48 -41 55 0 7 -12 25 -27 40
-48 46 -68 71 -83 101 -8 17 -28 44 -45 61 -77 79 -185 203 -185 214 0 6 -7
11 -15 11 -8 0 -21 16 -29 35 -8 19 -21 35 -28 35 -8 0 -33 18 -56 40 -22 22
-50 40 -62 40 -12 0 -20 7 -20 17 0 19 -186 203 -206 203 -7 0 -26 16 -41 35
-16 19 -47 44 -70 55 -22 10 -48 31 -57 45 -10 15 -40 37 -67 49 -27 13 -58
35 -70 50 -12 15 -30 26 -44 26 -16 0 -27 9 -36 29 -11 25 -18 29 -41 24 -20
-4 -35 1 -58 21 -18 14 -35 26 -39 26 -4 0 -17 9 -30 21 -12 12 -29 22 -36 23
-8 1 -22 9 -32 18 -10 9 -34 23 -53 32 -19 8 -42 20 -50 25 -8 5 -40 20 -70
34 -30 14 -67 37 -82 52 -20 18 -34 24 -51 20 -17 -5 -33 1 -54 19 -16 14 -49
28 -72 32 -22 4 -41 10 -41 15 0 14 -42 32 -80 33 -28 1 -34 5 -32 19 3 17 -1
18 -37 12 -33 -5 -42 -3 -47 9 -4 9 -18 16 -34 16 -38 0 -60 9 -60 25 0 10
-10 12 -34 8 -22 -3 -49 2 -82 17 -27 12 -69 25 -94 30 -107 21 -144 31 -158
42 -14 12 -110 28 -166 28 -15 0 -33 3 -40 8 -28 22 -232 55 -257 41 -11 -5
-27 -5 -42 0 -13 5 -73 13 -133 16 -64 4 -118 13 -131 21 -27 17 -59 18 -69 3
-6 -11 -74 -8 -139 6 -11 2 -31 -1 -45 -6z m335 -99 c208 -14 448 -45 590 -76
136 -29 391 -97 435 -116 14 -6 39 -14 55 -18 35 -10 88 -28 130 -46 17 -7 48
-20 70 -29 22 -10 67 -30 101 -46 33 -16 65 -29 71 -29 6 0 35 -13 66 -30 31
-16 62 -30 69 -30 6 0 19 -6 27 -13 9 -7 36 -22 61 -32 25 -11 47 -22 50 -26
6 -7 112 -68 165 -94 22 -11 45 -25 50 -32 6 -6 26 -20 45 -30 19 -10 68 -40
108 -68 41 -27 83 -55 96 -62 12 -7 41 -30 65 -52 25 -23 47 -41 51 -41 4 0
29 -21 56 -46 27 -25 60 -54 74 -63 64 -42 402 -376 495 -490 33 -40 68 -82
78 -94 10 -12 26 -31 35 -42 9 -11 30 -38 47 -60 16 -22 38 -50 49 -62 10 -12
24 -31 30 -42 6 -11 34 -53 61 -93 28 -40 52 -77 55 -83 3 -5 17 -29 33 -52
15 -24 27 -45 27 -48 0 -3 12 -24 27 -48 15 -23 43 -73 63 -112 20 -38 41 -79
47 -90 10 -18 49 -101 121 -256 12 -25 22 -51 22 -58 0 -11 4 -20 33 -79 9
-19 17 -39 17 -45 0 -7 6 -24 14 -38 7 -14 21 -52 30 -85 10 -32 23 -72 31
-89 15 -34 25 -73 64 -237 14 -64 30 -120 34 -124 4 -4 7 -23 7 -43 0 -20 5
-54 11 -76 16 -60 37 -206 48 -330 6 -60 15 -150 20 -200 23 -201 23 -215 1
-215 -26 -1 -375 -1 -397 0 -16 0 -18 15 -18 168 0 92 -6 199 -12 237 -7 39
-22 131 -34 205 -11 74 -24 139 -27 145 -4 5 -9 33 -13 60 -4 28 -11 64 -17
80 -6 17 -18 59 -27 95 -21 80 -102 324 -125 375 -5 11 -12 31 -16 45 -15 55
-156 349 -199 415 -18 28 -36 60 -39 73 -4 12 -12 22 -17 22 -5 0 -9 6 -9 14
0 8 -19 40 -42 73 -24 33 -47 67 -53 75 -36 59 -131 192 -163 229 -21 24 -43
51 -48 61 -39 70 -407 434 -569 563 -27 22 -54 45 -60 51 -5 6 -32 26 -60 45
-27 19 -54 38 -60 42 -5 4 -55 37 -110 73 -55 37 -102 70 -105 74 -3 4 -16 11
-30 15 -14 4 -38 18 -55 31 -29 22 -232 126 -350 179 -33 15 -74 33 -90 41
-17 8 -44 18 -60 24 -17 5 -75 25 -130 45 -55 20 -113 40 -130 45 -16 5 -55
16 -85 25 -30 9 -104 28 -165 41 -60 13 -126 29 -145 36 -19 6 -62 15 -95 19
-33 4 -85 12 -115 18 -169 31 -795 46 -895 21 -22 -5 -69 -10 -104 -10 -36 0
-90 -6 -120 -14 -31 -8 -83 -19 -116 -26 -164 -30 -294 -59 -320 -69 -11 -5
-47 -16 -80 -26 -33 -9 -71 -22 -85 -27 -14 -5 -59 -21 -100 -34 -41 -13 -84
-28 -95 -33 -11 -5 -40 -17 -65 -26 -143 -57 -409 -188 -505 -250 -92 -59
-315 -209 -346 -233 -323 -245 -712 -655 -864 -910 -5 -9 -33 -51 -61 -92 -27
-41 -61 -95 -74 -120 -14 -25 -34 -58 -46 -75 -21 -29 -124 -238 -124 -250 0
-3 -14 -33 -30 -67 -17 -33 -30 -72 -30 -87 0 -32 -37 -56 -61 -40 -8 5 -30 9
-49 9 -19 0 -57 7 -85 16 -27 9 -90 17 -140 18 -104 4 -112 12 -77 81 35 71
82 174 82 182 0 7 152 312 170 343 5 8 33 56 61 105 69 119 150 243 220 335
57 77 65 86 141 176 24 28 63 75 87 105 69 84 389 400 455 448 32 24 66 51 75
60 26 25 139 112 216 166 39 26 72 51 75 55 3 4 25 18 50 32 25 14 71 41 102
61 31 21 59 37 62 37 3 0 38 19 78 43 108 63 282 146 463 222 88 37 175 73
193 81 18 8 40 14 50 14 9 0 30 7 47 16 16 8 49 18 72 21 24 3 46 10 49 14 3
5 14 9 26 9 11 0 34 6 51 14 18 8 46 16 62 19 31 4 93 19 180 42 63 17 170 33
303 45 57 5 113 12 125 16 60 19 510 28 712 14z m60 -491 c66 -6 142 -13 170
-15 27 -2 70 -10 95 -19 25 -8 99 -22 165 -31 66 -8 134 -22 150 -29 60 -28
121 -45 161 -45 25 0 47 -6 54 -15 7 -8 20 -15 29 -15 19 0 88 -23 97 -33 4
-4 19 -7 34 -7 16 0 41 -12 61 -30 19 -16 39 -28 46 -25 7 2 33 -7 58 -21 25
-13 54 -24 64 -24 10 0 24 -7 31 -15 7 -8 21 -15 31 -15 10 0 23 -9 29 -20 6
-11 21 -20 35 -20 13 0 27 -5 30 -10 4 -6 15 -8 26 -5 13 4 27 -2 44 -21 14
-15 31 -24 39 -21 9 4 29 -7 47 -24 17 -16 39 -29 49 -29 9 0 25 -9 35 -20 10
-12 38 -29 62 -40 23 -10 48 -23 55 -29 76 -64 144 -111 170 -116 17 -4 33
-15 35 -24 4 -15 66 -61 82 -61 4 0 27 -20 51 -45 24 -25 50 -45 57 -45 7 0
13 -6 13 -13 0 -15 47 -61 72 -70 9 -3 28 -23 41 -44 13 -21 36 -45 51 -52 45
-25 104 -85 107 -111 3 -21 9 -24 32 -22 23 2 27 -1 27 -23 0 -18 5 -25 19
-25 11 0 23 -4 26 -10 3 -5 -1 -10 -9 -10 -22 0 -20 -19 2 -27 24 -9 62 -44
62 -59 0 -6 17 -26 38 -44 37 -32 64 -67 81 -107 6 -12 31 -43 56 -69 25 -27
48 -59 51 -71 4 -13 17 -32 30 -42 13 -10 24 -25 24 -33 0 -8 16 -30 36 -49
28 -27 35 -40 31 -62 -2 -19 2 -31 14 -37 23 -13 59 -72 59 -97 0 -10 10 -30
23 -43 23 -25 97 -166 97 -187 0 -6 9 -27 19 -45 10 -18 22 -48 26 -67 4 -19
14 -41 21 -49 8 -7 14 -24 14 -36 0 -13 6 -29 13 -35 15 -12 41 -90 33 -98 -3
-3 1 -15 9 -26 13 -18 13 -23 -1 -38 -20 -22 -9 -46 12 -28 19 16 28 -10 20
-56 -5 -27 -4 -35 8 -35 9 0 19 -16 26 -42 6 -24 16 -57 21 -74 5 -17 9 -46 9
-66 0 -19 6 -48 14 -64 8 -16 20 -81 27 -144 7 -63 16 -120 21 -127 5 -6 9
-28 8 -50 0 -51 10 -112 21 -119 11 -7 11 -104 0 -163 -5 -25 -5 -52 -1 -60 5
-9 11 -28 15 -43 3 -15 20 -42 38 -60 21 -22 31 -41 29 -55 -4 -26 -24 -30
-42 -8 -7 8 -21 15 -31 15 -14 0 -19 -7 -19 -30 0 -25 -4 -30 -36 -36 -22 -4
-43 -17 -57 -36 -13 -18 -29 -28 -42 -26 -12 2 -19 -2 -18 -9 2 -7 -3 -13 -10
-13 -8 0 -28 -20 -46 -45 -20 -28 -37 -42 -46 -39 -9 4 -16 -3 -20 -19 -4 -14
-13 -28 -21 -31 -8 -3 -14 -16 -14 -28 0 -13 -5 -30 -10 -38 -9 -13 -12 -13
-21 3 -17 29 -27 19 -22 -25 3 -29 -3 -63 -17 -103 -12 -33 -24 -73 -27 -90
-2 -16 -7 -37 -11 -45 -3 -8 -11 -57 -17 -109 -10 -87 -8 -127 10 -222 6 -32
5 -37 -16 -43 -23 -6 -23 -7 9 -21 35 -15 39 -30 17 -59 -16 -21 -11 -36 12
-36 20 0 57 -39 74 -79 8 -17 23 -34 34 -38 11 -3 26 -14 32 -23 7 -10 23 -20
36 -24 17 -4 27 -17 36 -48 13 -42 8 -53 -28 -70 -16 -8 -81 -94 -81 -107 0
-9 -9 -22 -20 -29 -14 -8 -20 -23 -20 -46 0 -18 -7 -39 -16 -47 -20 -16 -44
-63 -44 -86 0 -10 -11 -31 -25 -47 -14 -16 -30 -44 -37 -62 -10 -29 -15 -33
-36 -27 -18 4 -23 3 -18 -6 14 -21 -17 -103 -41 -112 -14 -5 -23 -17 -23 -29
0 -30 -18 -60 -35 -60 -18 0 -48 -56 -41 -75 7 -19 -17 -36 -45 -33 -21 3 -24
-1 -24 -28 0 -30 -18 -58 -83 -132 -55 -63 -66 -75 -105 -124 -20 -27 -44 -48
-52 -48 -8 0 -15 -6 -15 -14 0 -18 -78 -96 -96 -96 -7 0 -21 -12 -31 -27 -16
-27 -51 -63 -126 -131 -20 -18 -44 -43 -53 -57 -9 -14 -27 -28 -40 -31 -13 -3
-46 -28 -73 -55 -27 -27 -54 -49 -59 -49 -5 0 -17 -9 -26 -19 -10 -11 -24 -17
-32 -14 -8 3 -14 0 -14 -6 0 -6 -17 -19 -37 -30 -21 -10 -46 -33 -56 -50 -17
-30 -56 -49 -75 -37 -4 3 -30 -15 -55 -40 -26 -25 -70 -55 -97 -68 -27 -13
-55 -28 -62 -33 -7 -6 -57 -29 -111 -52 -54 -22 -106 -49 -115 -60 -9 -11 -48
-29 -87 -42 -38 -12 -78 -29 -87 -37 -10 -8 -26 -12 -38 -9 -13 3 -26 -2 -38
-18 -15 -19 -28 -23 -66 -23 -29 0 -57 -7 -74 -19 -43 -29 -108 -51 -136 -46
-15 3 -26 1 -26 -6 0 -6 -10 -11 -22 -11 -13 0 -32 -7 -42 -15 -11 -8 -35 -15
-54 -15 -19 0 -49 -9 -66 -19 -22 -14 -36 -17 -46 -11 -23 15 -68 12 -78 -5
-4 -9 -24 -17 -43 -19 -207 -22 -256 -28 -269 -33 -35 -14 -497 -24 -635 -13
-60 4 -150 11 -200 15 -90 6 -140 16 -182 37 -17 8 -30 8 -49 -1 -23 -10 -30
-9 -50 10 -16 15 -38 23 -66 25 -102 5 -195 29 -160 41 31 11 7 23 -48 23 -33
0 -76 6 -94 14 -18 8 -44 12 -57 9 -14 -2 -63 13 -118 36 -52 23 -104 41 -115
41 -10 0 -27 6 -35 13 -9 8 -36 22 -61 31 -24 10 -50 26 -58 37 -11 15 -21 18
-52 13 -32 -5 -41 -3 -46 10 -8 21 -47 41 -98 50 -26 5 -56 22 -88 51 -27 24
-59 45 -71 47 -14 2 -23 11 -25 26 -3 18 -8 23 -23 19 -13 -4 -52 17 -117 61
-53 36 -114 77 -134 91 -21 13 -38 28 -38 33 0 4 -5 8 -11 8 -6 0 -24 11 -41
25 -16 14 -41 25 -54 25 -21 0 -24 4 -22 27 2 21 -2 28 -26 34 -32 9 -76 46
-76 65 0 7 -16 18 -35 24 -19 6 -37 20 -40 31 -4 10 -15 24 -26 29 -10 6 -19
20 -19 30 0 11 -4 20 -9 20 -4 0 -24 15 -44 33 -19 17 -54 47 -77 66 -23 18
-45 44 -50 57 -5 13 -14 24 -19 24 -5 0 -12 11 -15 24 -3 13 -20 33 -38 44
-17 11 -44 42 -59 69 -16 29 -35 49 -47 51 -12 2 -25 15 -30 32 -6 16 -24 43
-41 61 -17 17 -31 36 -31 40 0 5 -14 24 -30 43 -22 25 -30 43 -28 63 2 21 -1
28 -15 28 -10 0 -23 9 -29 20 -6 11 -28 43 -49 70 -26 34 -36 57 -33 71 4 17
-1 23 -28 30 -29 9 -33 14 -32 42 1 21 -3 32 -12 32 -7 0 -20 21 -28 47 -8 27
-26 70 -40 97 -14 27 -26 57 -26 66 0 21 -56 110 -70 110 -5 0 -10 19 -10 43
0 34 -6 50 -31 78 -17 19 -38 44 -46 56 -8 13 -30 25 -49 29 -37 7 -57 24 -28
24 9 0 32 18 51 40 23 27 43 40 59 40 21 0 24 4 22 26 -3 23 1 27 26 28 19 1
38 13 56 35 22 26 33 31 50 26 19 -6 21 -4 16 13 -4 11 0 24 9 32 8 7 15 18
15 24 0 16 90 86 110 86 12 0 21 12 27 38 8 30 13 37 31 35 26 -3 29 12 5 21
-15 6 -15 8 0 23 12 13 19 14 30 5 19 -16 27 -5 27 35 0 21 5 33 14 33 7 0 30
31 50 70 20 38 41 72 46 75 6 3 10 19 10 34 0 15 11 42 25 61 14 19 25 41 25
51 0 9 8 27 18 40 11 13 22 40 25 59 9 45 21 99 41 180 9 36 20 84 26 108 13
54 13 304 0 368 -28 138 -61 256 -78 276 -10 12 -10 21 -1 41 11 23 8 29 -34
72 -35 35 -47 55 -49 82 -2 29 -9 39 -35 52 -21 10 -34 26 -38 44 -4 15 -21
42 -39 60 -18 18 -38 41 -44 52 -6 11 -19 20 -29 20 -11 0 -19 9 -21 23 -2 13
-13 27 -26 31 -12 5 -36 22 -54 39 -17 16 -38 32 -46 35 -9 4 -12 15 -9 34 5
25 4 26 -8 12 -8 -9 -21 -19 -29 -21 -21 -7 -50 10 -44 25 10 28 -58 61 -139
66 -5 1 1 13 12 27 12 15 21 32 21 39 0 19 22 57 48 83 12 12 22 31 22 42 0
10 11 36 25 56 14 20 25 48 25 62 0 31 36 73 56 65 10 -4 14 3 14 22 0 28 30
95 76 170 13 22 29 50 35 62 6 12 20 24 30 26 12 3 19 14 19 30 0 14 5 29 10
32 6 3 7 18 4 33 -7 26 -6 26 13 10 19 -17 20 -16 36 20 9 22 17 44 17 50 0 6
8 17 18 24 10 7 30 34 45 61 15 26 35 47 43 47 8 0 19 11 24 24 5 13 14 27 19
31 6 3 11 15 11 26 0 11 10 23 24 28 24 10 36 29 36 60 0 26 21 43 36 30 18
-15 33 -3 50 37 8 19 21 34 29 34 11 0 15 11 15 36 0 32 2 36 23 31 17 -4 28
2 48 31 14 20 38 44 54 52 16 8 65 50 108 93 44 42 85 77 91 77 13 0 43 28 81
77 14 17 60 49 102 70 48 24 78 46 84 61 5 12 17 25 26 29 38 13 152 85 157
99 3 8 17 14 31 14 16 0 25 6 25 15 0 15 10 19 43 16 11 -2 17 5 17 19 0 17 5
21 23 18 13 -1 41 9 63 22 21 14 50 31 64 38 14 6 32 16 40 21 8 5 38 19 65
31 28 13 73 34 101 48 29 14 58 23 65 20 8 -3 27 9 43 27 26 28 33 31 56 22
23 -9 32 -7 55 11 15 12 42 22 60 22 18 0 44 9 58 20 14 11 35 20 46 20 12 0
38 7 58 15 19 8 50 15 67 15 18 0 36 4 42 9 17 15 71 29 84 21 7 -4 25 -4 39
0 124 39 227 61 253 56 17 -3 36 -2 42 3 6 5 51 14 100 20 49 6 90 12 92 13 7
8 524 -3 629 -13z m-4170 -2404 c33 -8 74 -16 90 -18 112 -17 272 -85 402
-171 65 -43 243 -214 243 -234 0 -5 7 -15 15 -22 19 -16 105 -157 105 -172 0
-6 6 -19 13 -27 13 -15 20 -35 53 -146 41 -136 62 -348 43 -442 -5 -28 -14
-82 -19 -120 -10 -87 -33 -178 -66 -262 -34 -86 -115 -249 -131 -263 -7 -6
-13 -15 -13 -20 0 -15 -146 -204 -190 -247 -118 -114 -172 -162 -199 -176 -17
-8 -31 -19 -31 -23 0 -8 -59 -46 -141 -92 -142 -79 -270 -130 -429 -172 -140
-36 -478 -35 -595 3 -16 5 -59 19 -95 30 -74 24 -232 96 -241 110 -3 5 -21 18
-40 28 -39 21 -87 59 -144 116 -56 56 -115 123 -115 131 0 3 -12 23 -28 43
-34 46 -46 65 -72 121 -12 25 -28 57 -36 72 -8 14 -14 34 -14 45 0 10 -7 26
-15 37 -7 10 -17 44 -21 75 -3 31 -10 61 -14 66 -4 6 -11 69 -14 140 -11 216
20 437 79 570 7 17 21 50 30 75 17 46 31 73 72 145 12 22 26 47 30 55 3 8 26
41 50 73 24 31 43 61 43 65 0 16 245 260 305 304 58 43 260 168 271 168 3 0
35 14 71 30 35 17 68 30 73 30 4 0 21 7 36 15 16 8 39 15 52 15 12 0 39 7 59
15 19 8 50 15 67 16 17 0 58 7 91 14 76 18 291 17 370 0z m7955 -1416 c108
-17 230 -55 230 -71 0 -6 -16 -36 -35 -68 -19 -32 -35 -61 -35 -65 0 -5 -8
-26 -17 -47 -20 -45 -38 -48 -115 -17 -40 16 -75 21 -143 21 -139 1 -216 -42
-290 -161 -28 -46 -33 -60 -65 -176 -21 -75 -27 -229 -10 -240 6 -3 10 -18 10
-33 1 -31 32 -69 78 -95 48 -27 240 -24 258 4 3 5 17 9 32 9 15 0 40 7 56 15
43 23 54 19 61 -22 9 -57 12 -73 28 -135 11 -44 12 -62 3 -73 -6 -9 -54 -27
-106 -41 -87 -23 -109 -25 -255 -21 -154 4 -162 5 -214 33 -109 58 -197 162
-216 254 -4 19 -11 40 -16 46 -16 20 -12 271 5 325 9 27 23 73 32 102 16 52
44 115 67 152 39 62 72 110 86 124 32 31 128 111 134 111 4 0 35 14 69 31 90
44 238 59 368 38z m-7684 -1239 c6 -14 19 -50 29 -80 25 -78 172 -389 223
-472 80 -129 149 -236 178 -273 19 -25 34 -48 34 -51 0 -9 102 -138 112 -142
4 -2 8 -8 8 -14 0 -13 184 -218 306 -342 67 -68 216 -202 268 -242 28 -21 57
-45 66 -53 17 -16 187 -138 218 -156 9 -6 44 -28 77 -51 34 -22 67 -43 75 -47
8 -4 40 -23 70 -42 49 -30 279 -146 355 -179 17 -7 41 -18 55 -24 128 -57 472
-172 512 -172 9 0 29 -7 44 -15 16 -8 39 -15 52 -15 12 0 48 -6 80 -14 59 -15
180 -36 337 -58 60 -9 215 -13 470 -13 400 0 445 4 715 56 58 11 128 24 156
28 28 5 59 14 70 19 19 11 74 26 153 43 24 5 49 13 55 18 6 5 28 12 49 16 20
4 40 11 43 16 3 5 13 9 22 9 18 0 213 76 307 120 33 15 67 31 75 34 8 3 22 10
30 15 8 5 38 19 65 32 28 12 90 47 138 76 48 29 90 53 93 53 4 0 23 13 43 29
20 15 41 30 46 32 23 9 115 71 115 78 0 3 20 17 45 31 25 14 45 28 45 32 0 5
5 8 11 8 7 0 31 17 54 37 23 21 73 63 111 93 124 100 321 294 430 425 32 39
60 72 63 75 46 41 263 347 331 466 14 24 43 74 66 111 22 38 44 80 47 94 4 14
18 42 32 63 14 20 25 40 25 43 0 3 13 35 30 70 16 34 30 74 30 88 0 14 6 25
13 25 6 0 110 1 230 3 210 3 217 2 217 -17 0 -11 -6 -27 -14 -35 -8 -9 -26
-45 -41 -81 -133 -318 -327 -669 -482 -872 -24 -31 -43 -61 -43 -67 0 -6 -3
-11 -7 -11 -5 0 -39 -39 -78 -88 -147 -185 -362 -408 -522 -542 -62 -53 -158
-135 -163 -141 -4 -4 -63 -49 -155 -117 -5 -4 -28 -21 -50 -38 -39 -30 -243
-154 -375 -228 -117 -66 -391 -196 -412 -196 -5 0 -22 -6 -36 -14 -64 -34
-259 -106 -285 -106 -10 0 -28 -6 -40 -12 -36 -20 -191 -63 -283 -78 -28 -4
-61 -13 -72 -19 -11 -6 -36 -11 -55 -11 -19 0 -57 -6 -83 -14 -70 -20 -182
-36 -378 -52 -311 -26 -429 -28 -631 -11 -104 9 -215 19 -245 21 -83 7 -250
33 -290 45 -19 6 -49 11 -66 11 -17 0 -48 7 -67 15 -20 8 -48 15 -62 15 -15 0
-50 7 -78 15 -29 9 -77 23 -107 32 -57 16 -75 22 -220 68 -73 23 -127 44 -190
75 -8 4 -55 24 -105 45 -93 38 -321 149 -365 176 -25 16 -212 127 -273 162
-18 11 -41 27 -52 36 -11 10 -27 21 -35 24 -21 8 -214 160 -296 233 -37 32
-81 69 -98 82 -72 53 -350 339 -454 468 -13 16 -49 60 -80 97 -31 38 -72 90
-90 115 -68 98 -127 188 -138 212 -6 14 -21 34 -33 44 -11 11 -21 24 -21 30 0
6 -21 47 -46 91 -53 93 -155 292 -179 350 -9 22 -23 54 -30 70 -7 17 -21 48
-30 70 -9 22 -33 73 -52 113 -19 40 -33 79 -30 86 3 7 27 16 53 20 45 6 104
28 164 61 16 9 53 13 105 12 74 -2 80 -4 91 -27z m7169 -20 c3 -5 4 -14 1 -19
-9 -13 -46 -1 -46 15 0 16 36 19 45 4z"/>
<path d="M8820 8031 c0 -12 5 -21 10 -21 6 0 10 6 10 14 0 8 -4 18 -10 21 -5
3 -10 -3 -10 -14z"/>
<path d="M7440 6493 c-46 -2 -89 -8 -95 -13 -6 -5 -40 -14 -77 -20 -37 -7 -72
-18 -79 -26 -6 -8 -20 -14 -31 -14 -31 0 -60 -19 -118 -81 -40 -42 -63 -59
-85 -61 -30 -3 -30 -3 -31 -68 0 -36 -3 -72 -6 -80 -31 -76 -28 -181 6 -245 9
-16 16 -35 16 -41 0 -6 7 -17 16 -25 10 -8 13 -21 9 -36 -5 -23 10 -33 17 -11
3 7 25 -4 56 -28 76 -58 121 -84 145 -84 12 0 40 -12 62 -25 22 -14 50 -25 63
-25 12 0 22 -3 22 -7 0 -5 15 -16 33 -27 29 -17 30 -19 12 -26 -11 -4 -28 -3
-38 2 -13 7 -19 4 -26 -15 -9 -22 -15 -24 -53 -21 -24 2 -70 8 -103 14 -33 6
-71 12 -85 13 -14 2 -44 8 -68 15 -39 12 -47 11 -89 -10 -30 -15 -50 -33 -57
-50 -7 -20 -15 -26 -28 -22 -13 4 -18 0 -18 -14 0 -13 -9 -21 -25 -24 -19 -4
-25 -1 -25 12 0 10 -8 20 -19 23 -20 5 -30 46 -34 142 -2 28 -8 60 -15 72 -6
12 -12 34 -12 48 0 14 -5 36 -12 48 -12 22 -15 44 -22 153 -2 33 -9 71 -17 85
-7 13 -13 31 -14 39 -1 8 -5 55 -9 104 -5 50 -15 115 -22 145 -17 65 -75 141
-107 141 -12 0 -35 9 -52 20 -33 22 -70 26 -81 9 -4 -7 -29 -10 -68 -7 -36 3
-76 0 -98 -8 -49 -17 -98 -54 -98 -74 0 -8 -9 -23 -20 -33 -11 -9 -20 -23 -20
-32 0 -8 -14 -22 -30 -30 -25 -13 -29 -19 -20 -35 8 -15 4 -24 -19 -47 -16
-16 -32 -43 -35 -60 -4 -18 -14 -37 -22 -44 -8 -7 -12 -20 -8 -31 4 -13 -5
-29 -30 -54 -20 -20 -36 -41 -36 -48 0 -6 -9 -24 -20 -41 -11 -16 -20 -36 -20
-44 0 -17 -61 -111 -72 -111 -13 0 -9 -28 5 -33 9 -4 9 -8 -1 -15 -14 -9 -32
-38 -50 -77 -6 -11 -19 -29 -31 -39 -11 -11 -21 -27 -21 -37 0 -10 -9 -23 -20
-29 -11 -6 -20 -16 -20 -23 0 -29 -22 -86 -40 -107 -22 -26 -30 -51 -27 -90 2
-19 -3 -26 -20 -28 -17 -3 -24 -12 -29 -40 -6 -30 -3 -38 15 -50 11 -8 21 -23
21 -33 0 -10 10 -25 21 -33 13 -9 19 -21 16 -30 -7 -18 8 -30 23 -21 8 5 7 11
-1 21 -9 11 -8 15 4 20 25 9 34 -2 29 -36 -5 -38 -29 -49 -87 -40 -23 3 -49 4
-59 0 -9 -3 -103 -5 -209 -4 -109 1 -200 -3 -211 -8 -13 -7 -22 -6 -33 5 -14
14 -19 13 -47 -4 -17 -10 -38 -19 -47 -19 -20 0 -51 -44 -44 -63 3 -7 -3 -22
-15 -32 -11 -10 -20 -31 -20 -47 0 -16 -5 -39 -11 -50 -6 -11 -17 -73 -25
-138 -7 -64 -18 -129 -23 -143 -6 -14 -7 -41 -4 -60 5 -30 1 -38 -25 -57 -29
-22 -30 -23 -13 -52 15 -27 15 -30 -3 -44 -16 -11 -20 -28 -22 -77 -5 -122
-13 -189 -24 -202 -8 -10 -10 -32 -5 -66 6 -45 5 -51 -9 -46 -14 6 -16 -4 -16
-69 0 -59 5 -83 21 -112 28 -48 82 -84 115 -76 14 4 31 1 39 -6 12 -10 21 -10
41 -1 15 6 34 9 43 7 20 -7 88 14 118 35 22 16 83 157 83 194 0 11 7 33 15 49
8 15 15 41 15 56 0 15 11 39 25 54 14 15 25 31 25 36 0 5 55 8 128 7 104 -2
134 0 167 15 22 10 49 18 60 18 17 0 25 16 48 88 38 122 39 189 5 223 -56 53
-90 66 -183 71 -125 7 -185 41 -140 78 8 7 42 15 75 19 47 6 63 4 75 -8 11
-11 18 -13 23 -5 4 7 50 13 107 16 110 5 119 8 190 67 27 23 54 41 58 41 5 0
6 -16 1 -37 -4 -21 -9 -60 -11 -88 -4 -77 -37 -291 -63 -420 -6 -27 -15 -77
-20 -110 -6 -33 -17 -81 -25 -107 -8 -26 -15 -55 -15 -66 0 -11 -7 -25 -15
-32 -14 -11 -14 -15 -1 -29 8 -9 18 -29 22 -45 9 -39 60 -113 82 -120 9 -3 61
-7 114 -8 87 -2 100 1 120 19 13 12 37 23 53 25 27 3 31 7 36 45 6 50 14 60
32 45 7 -6 23 -9 35 -5 18 4 24 0 33 -25 6 -17 22 -38 35 -47 14 -9 29 -27 34
-41 13 -34 36 -40 76 -20 21 9 60 16 97 16 61 0 64 1 114 48 40 36 53 56 58
87 3 22 14 57 22 78 10 24 17 69 17 120 1 80 2 82 26 84 14 0 36 4 49 9 24 7
24 7 17 -49 -7 -50 -5 -57 13 -67 12 -6 21 -18 21 -28 0 -9 9 -30 20 -47 11
-16 20 -40 20 -51 0 -12 6 -24 13 -27 7 -2 18 -24 25 -48 24 -84 107 -118 294
-119 101 0 108 1 119 23 7 12 25 39 41 59 21 27 33 59 44 115 38 201 36 193
56 193 14 0 18 5 14 15 -3 8 -8 37 -12 65 -5 38 -3 51 8 55 10 4 14 30 15 105
2 99 16 180 32 180 4 0 8 12 9 28 2 81 21 212 36 244 10 23 16 65 16 108 0 70
-1 72 -39 110 -22 22 -51 42 -65 46 -14 3 -26 8 -26 10 0 15 26 54 36 54 7 0
17 7 22 17 8 13 19 15 54 10 41 -6 47 -4 72 25 20 24 30 28 38 20 19 -19 27
-14 36 21 6 23 14 32 30 32 24 1 39 13 56 47 6 12 22 24 34 26 20 3 22 8 17
31 -4 20 0 32 15 46 11 10 20 25 20 34 0 9 6 28 14 42 19 38 29 144 16 170 -9
15 -9 24 -1 32 17 17 13 31 -11 42 -18 8 -22 17 -20 43 3 24 0 32 -12 32 -9 0
-16 4 -16 9 0 19 -52 71 -71 71 -11 0 -22 7 -25 15 -4 8 -13 15 -21 15 -10 0
-14 7 -10 20 4 17 1 19 -18 14 -26 -6 -65 10 -65 28 0 6 8 17 18 24 15 12 14
13 -10 14 -18 0 -28 -5 -28 -15 0 -8 -5 -15 -12 -15 -22 0 -88 34 -88 46 0 7
-13 17 -30 23 -33 11 -37 22 -16 40 11 9 19 9 35 0 17 -11 23 -10 40 5 12 11
25 15 33 10 7 -5 40 -12 73 -16 33 -4 84 -11 113 -16 53 -9 54 -8 82 26 18 22
34 33 44 29 16 -7 56 48 56 77 0 9 7 16 15 16 9 0 14 -8 12 -22 -2 -18 4 -24
26 -26 15 -2 27 -10 27 -17 0 -21 78 -51 135 -53 98 -4 139 -36 120 -95 -7
-24 -28 -142 -45 -252 -6 -38 -20 -95 -31 -126 -17 -45 -19 -64 -11 -92 8 -29
7 -39 -5 -48 -11 -10 -13 -24 -8 -55 4 -27 2 -45 -5 -49 -6 -4 -11 -30 -10
-58 1 -29 -2 -66 -6 -84 -5 -26 -3 -32 17 -38 13 -4 30 -17 39 -27 13 -17 32
-21 109 -26 83 -4 98 -2 144 19 29 13 54 28 56 33 2 4 14 18 27 29 13 11 24
30 24 41 0 12 7 34 15 50 8 15 13 31 11 35 -10 15 15 159 36 211 14 37 21 73
20 109 -2 29 2 58 7 65 8 10 13 41 26 151 9 79 40 159 66 171 51 25 106 38
159 38 30 1 62 5 70 11 8 5 28 16 44 25 25 13 42 38 78 113 4 9 5 35 2 56 -4
24 -2 41 5 45 21 13 11 43 -27 78 -56 52 -96 70 -137 62 -21 -4 -41 -2 -49 5
-10 8 -21 9 -42 0 -17 -6 -51 -8 -79 -4 -27 3 -186 6 -352 6 -263 0 -305 -2
-335 -16 -39 -20 -98 -82 -98 -104 0 -10 -11 -5 -33 17 -22 21 -39 30 -52 26
-12 -3 -34 5 -54 21 -19 14 -47 25 -62 25 -38 0 -150 29 -176 46 -12 8 -24 13
-25 12 -2 -1 -41 -4 -88 -5z m180 -102 c53 -15 129 -36 188 -51 24 -6 45 -17
48 -25 3 -8 -14 -47 -38 -87 -25 -40 -48 -86 -52 -101 -9 -38 -30 -43 -85 -23
-148 57 -276 71 -352 38 -59 -26 -81 -53 -81 -97 0 -45 21 -66 93 -95 30 -12
67 -28 82 -36 16 -8 35 -14 42 -14 7 0 26 -6 42 -14 15 -8 46 -22 68 -32 61
-28 142 -92 167 -133 20 -31 23 -49 23 -147 0 -67 -5 -117 -11 -125 -7 -8 -15
-25 -19 -39 -14 -46 -93 -136 -140 -159 -113 -55 -181 -71 -315 -71 -120 0
-213 15 -287 46 -17 8 -39 14 -48 14 -9 0 -41 7 -71 16 -65 19 -68 30 -21 112
17 31 41 75 52 97 23 45 46 54 90 33 72 -35 107 -48 133 -48 16 0 33 -5 39
-11 21 -21 153 -23 219 -4 75 21 104 52 104 111 0 37 -5 47 -37 74 -21 17 -50
34 -66 37 -15 3 -30 9 -33 14 -2 5 -24 14 -47 20 -38 10 -64 21 -187 78 -19 9
-58 39 -86 67 -61 59 -71 97 -60 221 7 92 45 167 119 237 54 50 92 70 192 97
71 20 264 19 335 0z m1380 -11 c4 -7 2 -27 -6 -45 -7 -18 -19 -68 -27 -111
l-13 -79 -172 -1 c-95 0 -176 -4 -181 -10 -8 -8 -22 -84 -57 -304 -30 -187
-41 -247 -48 -258 -4 -7 -12 -47 -17 -90 -26 -213 -35 -262 -49 -276 -11 -11
-47 -15 -144 -17 -122 -2 -130 -1 -139 18 -6 14 -4 31 7 54 8 19 21 66 27 104
6 39 15 96 20 128 5 32 16 88 24 123 8 36 15 80 15 99 0 19 5 46 11 61 5 16
14 58 19 94 17 114 36 204 49 228 24 45 16 47 -178 43 l-183 -3 7 53 c4 30 11
62 16 71 5 9 9 36 9 60 0 45 7 62 28 69 6 2 229 3 493 2 370 -1 483 -4 489
-13z m-2489 -65 c13 -136 29 -271 38 -315 14 -64 30 -155 41 -228 5 -35 12
-67 15 -72 6 -10 31 -141 50 -260 11 -74 20 -112 52 -239 6 -24 5 -24 -38 -15
-24 4 -85 9 -135 9 -114 1 -124 7 -124 84 0 31 -4 61 -8 68 -6 9 -70 12 -252
10 l-245 -2 -35 -72 c-19 -40 -38 -75 -43 -79 -4 -4 -58 -8 -120 -9 -61 -1
-124 -5 -139 -9 -21 -6 -29 -4 -38 14 -10 19 -5 30 35 90 25 37 61 97 79 132
30 58 63 120 139 258 16 30 36 62 43 71 8 8 14 20 14 26 0 9 24 57 86 168 28
51 153 301 170 340 7 17 20 47 29 68 l16 37 182 -2 182 -3 6 -70z m-229 -1055
c25 -7 49 -26 73 -54 20 -24 49 -49 65 -56 20 -8 30 -20 30 -33 0 -16 3 -18
12 -9 7 7 18 12 25 12 13 0 72 -59 73 -72 0 -5 -19 -8 -43 -8 -32 0 -53 -8
-85 -31 -23 -17 -46 -28 -51 -24 -6 3 -20 -4 -33 -17 -14 -14 -17 -23 -10 -26
19 -6 14 -46 -9 -65 -11 -10 -18 -25 -15 -33 3 -8 9 -21 12 -29 3 -8 2 -15 -4
-15 -19 0 -43 77 -32 105 13 34 7 44 -56 92 -61 46 -110 59 -197 50 -72 -7
-101 -15 -106 -28 -1 -5 -14 -22 -27 -36 -13 -14 -24 -33 -25 -42 0 -11 -2
-12 -6 -3 -12 30 -55 62 -83 62 -23 0 -30 5 -30 19 0 21 -22 43 -42 40 -31 -4
-48 2 -48 16 0 9 8 18 18 21 9 3 29 12 45 21 15 8 40 14 55 13 44 -3 52 -1 52
14 0 8 10 18 23 21 12 4 29 16 37 26 8 10 40 32 70 48 51 27 63 30 165 30 61
1 127 -4 147 -9z m540 -52 c2 -16 11 -24 28 -26 60 -6 176 -36 192 -50 11 -9
26 -12 44 -8 14 4 42 2 61 -5 30 -9 34 -14 29 -35 -6 -21 -3 -24 19 -24 14 0
25 -4 25 -10 0 -5 -8 -10 -17 -10 -27 0 -95 -51 -88 -67 3 -8 -2 -24 -10 -36
-8 -12 -15 -32 -15 -45 0 -13 -6 -33 -12 -45 -13 -23 -35 -119 -45 -195 -7
-57 -27 -63 -64 -21 -22 25 -28 41 -24 62 3 21 -2 33 -21 49 -19 17 -23 28
-19 50 4 16 2 28 -3 28 -5 0 -12 8 -16 18 -3 9 -10 24 -15 32 -6 8 -13 32 -16
52 -4 24 -12 39 -24 43 -10 3 -24 18 -31 34 -12 30 -19 32 -149 50 -30 4 -57
13 -59 19 -2 7 -10 12 -18 12 -8 0 -14 9 -14 20 0 21 19 27 36 10 8 -8 15 -6
24 5 7 8 21 15 32 15 11 0 45 26 76 58 60 61 87 67 94 20z m558 -108 c0 -11
-26 -20 -56 -20 -30 0 -31 18 -2 29 24 9 58 3 58 -9z m-60 -125 c63 1 121 0
128 -3 15 -5 16 -44 0 -60 -7 -7 -15 -38 -19 -70 -9 -76 -55 -340 -74 -423 -8
-37 -15 -81 -15 -97 0 -17 -5 -43 -12 -59 -6 -15 -15 -55 -19 -88 -4 -33 -14
-100 -22 -150 -8 -49 -21 -127 -28 -172 -6 -46 -17 -83 -23 -84 -8 -1 -227 0
-317 1 -9 0 -26 48 -34 94 -3 21 -10 46 -15 55 -11 19 -57 160 -71 214 -5 21
-13 45 -18 55 -12 24 -30 78 -46 139 -8 29 -24 79 -35 112 -11 33 -20 68 -20
78 0 10 -9 33 -20 51 -17 28 -23 32 -35 22 -11 -9 -14 -33 -13 -93 2 -80 -12
-201 -34 -302 -6 -27 -14 -75 -18 -105 -14 -101 -40 -275 -45 -296 -4 -20 -12
-22 -142 -26 -76 -3 -141 -1 -144 4 -3 5 -2 28 2 51 12 64 29 146 41 201 6 26
14 74 18 105 18 133 33 220 46 272 8 30 14 69 14 87 0 17 5 43 11 59 6 15 15
55 20 88 4 33 15 110 23 170 8 61 19 123 23 139 l9 29 161 0 c89 -1 166 -4
172 -7 6 -4 11 -22 11 -41 0 -19 5 -37 10 -40 6 -3 10 -18 10 -32 0 -13 6 -37
14 -51 8 -15 35 -92 61 -172 25 -80 52 -161 59 -180 8 -19 22 -64 31 -100 10
-36 24 -82 31 -103 8 -20 14 -48 14 -62 0 -15 7 -26 20 -30 35 -11 41 2 35 78
-6 72 5 198 23 272 6 22 16 69 23 105 12 64 17 92 38 240 22 145 20 141 39
131 9 -4 69 -7 132 -6z m-1537 -30 c-1 -16 -6 -31 -11 -34 -13 -9 -72 -128
-86 -175 -6 -17 -20 -18 -260 -15 -140 2 -258 0 -263 -4 -4 -5 -13 -41 -20
-80 -6 -40 -16 -94 -22 -121 -6 -26 -8 -52 -5 -57 3 -6 38 -8 77 -5 125 9 352
10 365 2 16 -10 15 -38 -3 -72 -8 -16 -15 -46 -15 -66 0 -21 -7 -56 -16 -78
-16 -40 -18 -41 -53 -36 -20 3 -119 6 -221 8 l-185 3 -6 -76 c-4 -42 -10 -82
-13 -88 -4 -6 -11 -41 -16 -79 -4 -37 -14 -97 -21 -134 l-13 -68 -91 0 c-49 0
-106 -3 -125 -6 -23 -3 -42 0 -54 9 -17 13 -18 19 -8 58 24 99 57 263 72 364
23 151 54 329 72 405 5 25 14 72 19 105 5 33 15 101 22 152 7 50 18 98 24 105
9 10 97 13 435 12 l423 -1 -2 -28z m436 26 c15 -1 14 -13 -23 -186 -14 -66
-26 -133 -26 -148 0 -16 -5 -37 -11 -48 -5 -11 -14 -52 -19 -92 -5 -40 -18
-126 -30 -192 -11 -66 -25 -147 -31 -179 -5 -33 -12 -63 -15 -68 -3 -4 -10
-41 -15 -81 -5 -39 -13 -100 -18 -135 -5 -35 -11 -65 -13 -68 -3 -2 -67 -6
-142 -7 l-136 -2 0 35 c0 19 5 53 10 75 6 22 17 86 25 141 8 56 19 114 25 129
5 14 10 42 10 61 0 20 4 43 10 53 5 10 13 51 19 92 5 41 14 99 20 129 6 30 17
100 26 155 9 55 23 128 31 162 7 34 14 80 14 103 0 74 2 75 147 74 70 -1 134
-2 142 -3z m86 -218 c-6 -41 -45 -123 -57 -123 -15 0 -8 45 12 75 11 17 20 39
20 51 0 22 8 34 22 34 5 0 6 -17 3 -37z m-25 -212 c0 -11 -4 -23 -10 -26 -6
-4 -10 5 -10 19 0 14 5 26 10 26 6 0 10 -9 10 -19z m-32 -198 c-3 -89 -22 -99
-24 -13 -1 64 4 90 17 90 6 0 9 -32 7 -77z m-33 -162 c3 -5 1 -13 -5 -16 -15
-9 -43 3 -35 15 8 13 32 13 40 1z m5 -96 c0 -14 -4 -25 -10 -25 -5 0 -10 11
-10 25 0 14 5 25 10 25 6 0 10 -11 10 -25z m-60 -155 c0 -5 -4 -10 -10 -10 -5
0 -10 -7 -10 -15 0 -8 -4 -15 -10 -15 -13 0 -13 6 2 30 14 21 28 26 28 10z"/>
<path d="M6247 6040 c-9 -22 -24 -59 -33 -82 -30 -76 -107 -232 -141 -284 -52
-81 -55 -79 122 -80 176 -1 171 -4 140 82 -12 37 -31 206 -38 349 -3 66 -27
73 -50 15z"/>
<path d="M4927 6447 c-72 -39 -77 -43 -87 -86 -6 -25 -13 -64 -16 -85 -2 -22
-8 -44 -13 -50 -4 -6 -11 -38 -15 -70 -4 -33 -11 -64 -15 -70 -5 -6 -14 -64
-19 -129 -7 -78 -16 -126 -26 -143 -12 -17 -15 -35 -11 -57 4 -21 0 -54 -10
-85 -10 -29 -14 -63 -11 -77 5 -18 2 -25 -8 -25 -22 0 -28 -16 -14 -44 8 -19
8 -32 0 -49 -18 -37 -38 -211 -29 -250 7 -27 59 -87 75 -87 6 0 20 -9 30 -20
17 -18 20 -19 32 -5 17 20 26 19 50 -5 22 -22 40 -19 40 6 0 16 16 19 25 4 9
-15 42 -12 59 6 9 9 28 19 43 23 42 11 78 93 113 258 7 28 20 59 30 68 10 9
22 30 25 46 4 16 12 29 18 30 7 0 74 1 149 1 116 0 141 2 160 17 13 10 42 26
65 36 45 20 55 42 46 105 -5 35 -5 35 12 12 17 -24 35 -21 35 5 0 8 -9 17 -20
20 -24 6 -25 18 -6 56 11 19 12 27 3 27 -13 0 -47 54 -47 75 0 7 -21 18 -47
25 -27 6 -59 16 -73 20 -14 5 -60 12 -102 15 -74 6 -78 8 -93 38 -9 18 -12 34
-6 40 15 15 151 28 271 25 107 -2 118 -1 157 22 23 14 45 35 48 47 3 13 16 25
29 29 25 6 41 40 31 66 -3 8 1 28 10 44 19 36 19 75 1 119 -31 74 -89 86 -426
86 -146 0 -272 -1 -280 -1 -8 0 -36 1 -61 4 -39 4 -56 -2 -122 -37z m847 -53
c23 -9 20 -27 -14 -77 -16 -25 -30 -48 -30 -51 0 -4 -8 -26 -19 -49 -10 -23
-21 -50 -24 -60 -7 -17 -23 -18 -269 -16 l-263 2 -6 -64 c-4 -35 -14 -92 -23
-127 -10 -34 -14 -67 -10 -73 5 -8 67 -9 218 -4 245 8 247 8 221 -65 -8 -23
-15 -56 -15 -73 0 -24 -16 -87 -26 -105 -1 -2 -104 -3 -228 -2 l-226 1 0 -39
c0 -22 -5 -64 -10 -93 -6 -30 -15 -81 -20 -114 -6 -33 -16 -89 -23 -125 l-13
-65 -74 3 c-41 1 -97 -2 -124 -7 -55 -10 -72 -7 -81 17 -6 16 7 82 31 161 8
25 14 57 14 72 0 16 7 54 15 86 8 31 15 74 15 95 0 20 4 39 9 42 4 3 11 38 15
78 7 83 30 216 52 299 8 30 14 69 14 87 0 17 7 57 15 89 8 31 15 81 15 110 0
29 1 54 3 55 1 1 184 5 407 8 223 3 413 6 422 8 9 1 23 -1 32 -4z"/>
<path d="M4527 6454 c-55 -19 -87 -52 -87 -91 0 -17 -4 -35 -10 -38 -5 -3 -10
-30 -11 -58 -1 -52 -15 -164 -18 -138 -3 34 -15 -4 -16 -52 -5 -169 -23 -304
-48 -355 -8 -17 -8 -31 1 -54 8 -21 8 -37 1 -49 -5 -11 -9 -29 -8 -42 6 -65
-1 -99 -21 -104 -18 -5 -20 -13 -19 -67 0 -63 0 -72 -27 -286 -18 -145 -42
-271 -55 -284 -5 -6 -9 -51 -9 -100 0 -62 -5 -100 -15 -120 -11 -20 -12 -33
-5 -40 15 -15 12 -48 -6 -74 -11 -16 -13 -34 -9 -65 5 -33 3 -46 -9 -56 -20
-17 -20 -31 0 -45 23 -18 2 -96 -26 -96 -23 0 -24 -4 -8 -30 10 -15 9 -23 -7
-40 -16 -17 -16 -24 -5 -44 7 -14 9 -30 4 -38 -9 -14 -10 -27 -20 -198 -6
-107 -5 -117 15 -139 12 -13 21 -27 21 -31 0 -4 19 -12 41 -19 42 -13 58 -6
59 23 0 4 9 6 19 3 25 -6 54 24 45 47 -3 9 3 42 14 74 12 31 28 111 37 177 10
66 19 124 22 128 3 5 7 49 9 98 2 50 9 111 15 137 16 68 40 246 43 322 2 74
10 92 33 83 13 -5 15 -2 9 18 -16 51 -18 69 -11 86 7 17 9 34 19 165 2 31 11
85 19 120 9 35 18 101 22 148 9 117 22 180 41 202 14 14 16 31 10 92 -5 55 -3
85 9 120 9 26 13 56 10 67 -10 31 5 119 20 119 9 0 14 37 20 143 4 78 11 148
17 154 7 9 7 23 -1 43 -11 33 -5 86 12 108 7 9 2 21 -20 42 -43 42 -71 50
-116 34z m89 -49 c4 -8 0 -25 -8 -38 -8 -12 -18 -55 -22 -95 -4 -40 -11 -85
-17 -100 -5 -15 -13 -70 -19 -122 -18 -172 -63 -495 -75 -535 -3 -11 -10 -56
-15 -100 -5 -44 -16 -134 -25 -200 -8 -66 -22 -172 -30 -235 -9 -63 -22 -158
-31 -210 -8 -52 -19 -131 -24 -175 -5 -44 -12 -93 -15 -110 -6 -30 -27 -178
-49 -355 -6 -52 -14 -100 -18 -105 -4 -6 -11 -64 -17 -129 -13 -138 -20 -156
-62 -156 -37 0 -51 31 -39 86 5 22 16 98 25 169 9 72 21 150 26 175 5 25 14
81 20 125 6 44 17 125 24 180 7 55 20 156 28 225 9 69 18 132 21 140 3 8 10
49 15 90 11 81 26 186 41 290 5 36 19 137 30 225 18 139 30 219 55 375 9 56
34 255 49 390 13 115 21 164 31 198 6 18 94 16 101 -3z"/>
<path d="M8245 5071 c-6 -5 -71 -15 -145 -21 -74 -6 -142 -13 -150 -16 -8 -2
-31 -25 -50 -49 -26 -33 -36 -57 -37 -88 -2 -23 -5 -59 -9 -80 -13 -77 17
-140 74 -153 15 -4 33 -12 41 -18 8 -6 39 -9 70 -8 46 3 62 -1 84 -18 31 -25
34 -41 11 -76 -15 -22 -15 -30 -4 -65 11 -32 11 -47 2 -73 -7 -18 -12 -47 -12
-64 0 -23 -7 -36 -25 -48 -28 -18 -33 -44 -9 -44 12 0 15 -6 11 -22 -23 -89
-37 -158 -37 -191 0 -21 -7 -52 -16 -69 -33 -63 1 -208 53 -230 15 -6 35 -17
43 -24 8 -6 54 -14 103 -18 74 -5 87 -4 87 9 0 9 8 18 18 21 59 19 73 28 79
53 3 14 14 42 24 61 11 21 23 78 29 140 14 128 18 144 32 110 6 -15 12 -20 15
-12 3 7 0 19 -7 27 -8 10 -7 32 4 89 9 41 16 94 16 118 0 24 7 52 15 62 8 11
15 41 15 67 0 26 4 50 9 54 5 3 7 20 4 38 -4 27 1 39 29 71 l33 37 115 11 c88
8 120 15 136 29 11 11 28 19 37 19 9 0 17 5 17 10 0 6 5 10 10 10 6 0 10 -7
10 -15 0 -8 -6 -15 -13 -15 -8 0 -21 -8 -31 -19 -15 -16 -15 -19 -1 -31 30
-25 38 -51 27 -89 -44 -152 -63 -253 -62 -329 1 -37 -4 -57 -16 -69 -12 -13
-15 -28 -11 -65 3 -26 2 -50 -4 -53 -5 -4 -9 -17 -9 -31 0 -14 -7 -27 -15 -30
-10 -4 -13 -13 -9 -26 3 -11 7 -54 8 -94 2 -69 5 -77 35 -108 17 -18 36 -46
40 -62 l8 -29 11 27 c11 27 13 27 74 23 143 -9 677 -6 697 4 11 6 41 30 67 52
l48 41 0 84 c1 62 5 87 15 94 13 7 13 11 1 25 -7 9 -26 23 -42 31 -15 8 -28
21 -28 29 0 11 -12 15 -42 17 -54 1 -190 5 -286 7 -77 1 -97 15 -75 50 14 23
72 48 99 43 13 -2 30 0 37 6 6 6 39 9 72 8 71 -3 148 23 154 50 1 11 8 26 15
34 22 28 35 69 42 133 6 59 4 66 -25 112 -40 63 -61 74 -141 75 -77 0 -112 8
-107 24 2 6 36 12 83 14 234 9 230 8 293 46 56 34 59 39 76 98 9 35 21 87 27
116 10 52 9 55 -19 90 -27 33 -37 38 -94 45 -35 5 -222 9 -415 10 -390 2 -376
4 -404 -64 -14 -33 -45 -42 -35 -9 7 22 -19 29 -29 8 -3 -9 -8 -8 -16 5 -6 9
-16 17 -22 17 -7 0 -22 10 -35 22 -23 22 -33 23 -256 26 -128 2 -237 8 -242
13 -6 4 -20 8 -30 7 -11 -1 -45 2 -75 6 -33 4 -59 3 -65 -3z m682 -138 c-3
-21 -11 -72 -17 -113 -6 -41 -13 -81 -15 -89 -5 -11 -36 -13 -180 -9 l-175 6
-6 -27 c-3 -14 -8 -33 -11 -41 -2 -8 -9 -46 -13 -85 -5 -38 -16 -108 -25 -155
-9 -47 -23 -123 -30 -170 -30 -186 -44 -263 -50 -279 -4 -9 -10 -54 -15 -100
-5 -46 -13 -88 -17 -92 -10 -9 -280 -16 -289 -7 -3 4 4 43 15 87 12 44 21 94
21 109 0 16 7 49 15 72 8 23 15 60 15 82 0 22 5 48 11 59 6 11 14 50 19 87 17
123 38 246 55 322 9 41 19 90 22 109 l5 34 -73 -7 c-41 -3 -118 -7 -171 -8
-125 -3 -133 3 -111 82 8 30 20 81 26 113 l12 59 450 -1 c248 0 466 4 485 8
45 10 54 2 47 -46z m1026 11 c-1 -16 -7 -30 -12 -32 -6 -2 -20 -24 -32 -50
-12 -26 -28 -59 -35 -74 -8 -14 -14 -33 -14 -41 0 -9 -5 -19 -11 -23 -10 -6
-176 -6 -479 0 l-45 1 -7 -60 c-4 -33 -15 -76 -24 -97 -9 -20 -14 -40 -11 -45
4 -6 96 -8 220 -5 243 5 237 8 218 -77 -6 -25 -17 -73 -24 -106 -12 -49 -18
-61 -38 -66 -13 -3 -110 -4 -216 -2 -218 5 -213 7 -213 -82 0 -25 -7 -62 -15
-82 -8 -19 -15 -49 -15 -66 l0 -30 138 7 c75 3 202 7 282 7 169 2 173 1 147
-79 -10 -28 -17 -72 -17 -99 0 -26 -4 -54 -9 -61 -6 -11 -93 -13 -430 -13
-233 -1 -425 2 -428 5 -6 6 12 126 29 186 5 19 14 62 18 95 5 33 16 98 23 145
8 47 20 119 27 160 6 41 18 97 26 124 8 26 14 66 14 87 0 21 4 48 9 61 5 13
19 91 32 173 12 83 26 155 30 160 5 6 161 10 436 9 l428 -1 -2 -29z m-963 -49
c0 -8 -4 -15 -10 -15 -5 0 -10 7 -10 15 0 8 5 15 10 15 6 0 10 -7 10 -15z"/>
<path d="M4105 4330 c-4 -6 -3 -16 3 -22 6 -6 12 -6 17 2 4 6 3 16 -3 22 -6 6
-12 6 -17 -2z"/>
<path d="M9832 3866 c1 -10 8 -17 13 -17 15 1 12 24 -3 29 -9 3 -13 -2 -10
-12z"/>
<path d="M3200 5799 c-84 -11 -236 -20 -362 -23 -119 -2 -221 -6 -225 -9 -5
-3 -46 -1 -92 5 -71 8 -85 7 -100 -6 -13 -12 -40 -16 -107 -16 -49 0 -116 -7
-149 -15 -33 -8 -77 -14 -99 -15 -50 0 -149 -26 -200 -52 -21 -11 -61 -42 -87
-69 -38 -39 -49 -58 -55 -96 -11 -78 35 -140 86 -113 25 14 26 32 0 55 -25 23
-25 39 0 79 41 67 159 102 375 111 72 2 139 6 150 7 26 4 31 -25 12 -66 -16
-33 -34 -91 -62 -196 -25 -95 -46 -161 -61 -198 -8 -18 -14 -39 -14 -47 0 -8
-8 -30 -17 -50 -16 -34 -18 -35 -77 -36 -121 -2 -181 -13 -184 -32 -9 -44 36
-52 188 -35 36 4 36 -22 0 -75 -16 -25 -30 -48 -30 -53 0 -32 -185 -278 -267
-354 -124 -117 -266 -159 -364 -110 -42 22 -79 71 -79 106 0 57 70 154 144
202 65 42 166 92 185 92 9 0 22 5 28 11 7 7 47 12 95 13 l83 1 18 -40 c18 -37
20 -38 33 -20 42 57 -15 125 -105 125 -39 0 -139 -21 -196 -42 -93 -34 -181
-87 -244 -148 -82 -79 -111 -132 -111 -201 0 -95 54 -157 165 -190 68 -21 72
-21 150 -4 101 22 178 64 275 153 65 59 205 232 261 322 35 55 77 138 94 182
11 31 24 48 39 51 69 17 198 29 258 24 60 -5 72 -3 89 14 23 23 25 52 3 69
-23 20 -160 14 -236 -10 -92 -30 -105 -18 -69 63 10 23 27 67 36 97 10 30 24
67 31 82 8 14 14 37 14 50 0 13 5 29 11 35 6 6 15 29 20 50 25 116 36 146 55
153 10 3 127 3 259 -2 132 -4 327 -5 432 -2 178 6 195 8 217 28 59 52 67 100
25 145 -24 25 -43 25 -239 0z"/>
<path d="M11225 5040 c-11 -5 -31 -9 -45 -9 -28 -1 -95 -74 -85 -92 4 -6 -1
-16 -10 -23 -10 -7 -19 -28 -20 -47 -5 -70 -17 -155 -24 -174 -22 -55 -32 -97
-27 -113 3 -9 -1 -56 -9 -102 -9 -47 -22 -129 -30 -183 -9 -68 -20 -105 -35
-124 -18 -24 -20 -35 -14 -94 4 -45 3 -69 -5 -73 -6 -4 -11 -22 -11 -40 0 -18
-7 -55 -15 -82 -22 -72 -19 -86 23 -126 26 -26 52 -39 90 -47 69 -14 162 -13
188 2 39 23 94 72 94 84 0 7 6 10 13 7 10 -4 14 12 15 65 0 38 8 85 16 104 8
19 19 59 25 89 14 67 44 118 70 118 11 0 23 5 26 10 10 16 130 12 144 -4 7 -8
22 -11 38 -8 23 4 25 2 18 -14 -25 -60 -35 -120 -23 -142 9 -18 8 -29 -5 -56
-36 -77 -30 -161 15 -212 41 -47 159 -59 267 -29 62 18 64 20 88 72 13 29 31
92 39 140 8 49 19 111 25 138 6 28 11 65 12 83 1 18 7 36 13 40 6 4 14 53 17
112 3 62 13 124 23 150 9 25 22 95 28 155 6 61 16 119 23 131 17 29 19 184 3
215 -32 60 -50 68 -156 72 -54 2 -112 0 -128 -4 -54 -16 -97 -72 -110 -144 -2
-16 -10 -50 -16 -75 -6 -25 -15 -74 -20 -110 -7 -53 -14 -69 -37 -87 -15 -13
-41 -23 -58 -24 -16 0 -39 -4 -49 -8 -24 -9 -126 13 -136 30 -13 19 1 232 17
264 9 19 12 43 8 68 -6 34 -12 40 -79 72 -75 36 -145 45 -191 25z m221 -73 c5
-4 2 -22 -5 -40 -8 -18 -17 -57 -22 -87 -13 -90 -29 -172 -45 -226 -8 -28 -14
-62 -14 -75 l0 -24 212 2 c116 1 215 6 219 10 4 4 12 46 18 93 21 167 40 295
49 325 l8 30 140 0 c138 0 139 0 142 -23 2 -13 -4 -47 -13 -75 -9 -28 -21 -80
-26 -116 -4 -36 -15 -104 -24 -151 -9 -47 -22 -125 -29 -175 -8 -49 -19 -106
-25 -125 -6 -19 -11 -55 -11 -80 -1 -25 -7 -56 -15 -70 -8 -14 -15 -45 -15
-70 0 -25 -5 -63 -10 -85 -5 -22 -14 -80 -20 -130 -6 -49 -14 -93 -19 -98 -4
-4 -67 -8 -141 -10 -159 -2 -166 2 -137 82 9 28 22 80 27 118 14 101 37 214
51 252 17 47 -6 65 -71 54 -25 -3 -52 -6 -60 -6 -147 5 -284 3 -291 -4 -5 -5
-12 -34 -15 -64 -5 -52 -16 -116 -49 -265 -8 -40 -15 -93 -15 -118 0 -25 -3
-46 -7 -47 -31 -3 -271 -5 -280 -1 -15 5 -17 48 -4 56 5 4 12 30 16 59 3 28
11 66 16 82 5 17 13 66 19 110 10 88 26 171 42 225 6 19 15 64 19 100 21 162
43 297 75 440 7 36 13 72 12 80 -5 58 -10 56 146 56 79 -1 148 -5 152 -9z"/>
<path d="M10585 3440 c-4 -6 -3 -16 3 -22 6 -6 12 -6 17 2 4 6 3 16 -3 22 -6
6 -12 6 -17 -2z"/>
<path d="M9502 1898 c6 -18 28 -21 28 -4 0 9 -7 16 -16 16 -9 0 -14 -5 -12
-12z"/>
<path d="M7535 880 c-3 -5 3 -10 14 -10 12 0 21 5 21 10 0 6 -6 10 -14 10 -8
0 -18 -4 -21 -10z"/>
</g>
</svg>
